<?xml version="1.0" encoding="UTF-8" standalone="no"?>
<svg xmlns="http://www.w3.org/2000/svg" width="100" height="100" viewBox="0 0 100 100">
  <circle cx="50" cy="50" r="45" fill="#5865F2" />
  <path d="M69.4,40c-4.8-3.9-12.2-7.5-19.4-7.5c-7.2,0-14.7,3.6-19.4,7.5c-0.7,0.6-0.8,1.7-0.2,2.4c0.5,0.6,1.4,0.7,2.1,0.3
    c3.5-2.5,8.6-4.9,13.6-5.7v3.2c-4.6,0.7-9.2,2.9-12.6,5.2c-0.7,0.5-0.9,1.5-0.3,2.2c0.5,0.7,1.5,0.8,2.2,0.3c2.8-1.9,6.4-3.6,10.7-4.2
    v5.8c0,0.9,0.7,1.6,1.6,1.6c0.9,0,1.6-0.7,1.6-1.6v-5.8c4.3,0.6,7.9,2.3,10.7,4.2c0.7,0.5,1.7,0.3,2.2-0.3c0.5-0.7,0.4-1.7-0.3-2.2
    c-3.4-2.3-8-4.5-12.6-5.2v-3.2c5,0.8,10.1,3.2,13.6,5.7c0.7,0.5,1.6,0.3,2.1-0.3C70.2,41.7,70.1,40.6,69.4,40z" fill="white"/>
  <path d="M50,65c-7.7,0-14-3.1-14-7v7c0,3.9,6.3,7,14,7s14-3.1,14-7v-7C64,61.9,57.7,65,50,65z" fill="white"/>
</svg>